<?xml version="1.0" encoding="UTF-8" standalone="no"?>
<!-- Generator: Adobe Illustrator 17.0.1, SVG Export Plug-In . SVG Version: 6.00 Build 0)  -->

<svg
   xmlns:dc="http://purl.org/dc/elements/1.1/"
   xmlns:cc="http://creativecommons.org/ns#"
   xmlns:rdf="http://www.w3.org/1999/02/22-rdf-syntax-ns#"
   xmlns:svg="http://www.w3.org/2000/svg"
   xmlns="http://www.w3.org/2000/svg"
   xmlns:xlink="http://www.w3.org/1999/xlink"
   xmlns:sodipodi="http://sodipodi.sourceforge.net/DTD/sodipodi-0.dtd"
   xmlns:inkscape="http://www.inkscape.org/namespaces/inkscape"
   version="1.1"
   x="0px"
   y="0px"
   width="86px"
   height="86px"
   viewBox="0 0 86 86"
   enable-background="new 0 0 86 86"
   xml:space="preserve"
   id="svg3066"
   inkscape:version="0.48.5 r10040"
   sodipodi:docname="harbour-tagesschau.svg"
   inkscape:export-filename="/home/julius/Dokumente/Projekte/harbour-tagesschau/harbour-tagesschau.png"
   inkscape:export-xdpi="90"
   inkscape:export-ydpi="90"><metadata
     id="metadata3126"><rdf:RDF><cc:Work
         rdf:about=""><dc:format>image/svg+xml</dc:format><dc:type
           rdf:resource="http://purl.org/dc/dcmitype/StillImage" /><dc:title></dc:title></cc:Work></rdf:RDF></metadata><defs
     id="defs3124"><radialGradient
       gradientUnits="userSpaceOnUse"
       gradientTransform="matrix(0,0.953,-0.9513,0,374.8925,-416.2066)"
       r="44.7903"
       cy="348.9771"
       cx="481.8537"
       id="SVGID_1_"><stop
         id="stop3071"
         style="stop-color:#005ab4;stop-opacity:1;"
         offset="0" /><stop
         id="stop3073"
         style="stop-color:#00174b;stop-opacity:1;"
         offset="1" /></radialGradient><linearGradient
       y2="57.6616"
       x2="57.9244"
       y1="27.843"
       x1="28.1058"
       gradientUnits="userSpaceOnUse"
       id="SVGID_2_"><stop
         id="stop3114"
         style="stop-color:#FFFFFF"
         offset="0" /><stop
         id="stop3116"
         style="stop-color:#F3EDD1"
         offset="1" /></linearGradient><linearGradient
       inkscape:collect="always"
       xlink:href="#SVGID_1_"
       id="linearGradient3924"
       x1="44.126438"
       y1="32.520058"
       x2="34.72393"
       y2="99.717888"
       gradientUnits="userSpaceOnUse" /></defs><sodipodi:namedview
     pagecolor="#ffffff"
     bordercolor="#666666"
     borderopacity="1"
     objecttolerance="10"
     gridtolerance="10"
     guidetolerance="10"
     inkscape:pageopacity="0"
     inkscape:pageshadow="2"
     inkscape:window-width="866"
     inkscape:window-height="1056"
     id="namedview3122"
     showgrid="false"
     inkscape:zoom="3.5807559"
     inkscape:cx="42.142634"
     inkscape:cy="-8.6913921"
     inkscape:window-x="1052"
     inkscape:window-y="22"
     inkscape:window-maximized="0"
     inkscape:current-layer="svg3066" /><g
     id="Layer_2"
     display="none" /><path
     inkscape:connector-curvature="0"
     style="fill:url(#linearGradient3924);fill-opacity:1"
     id="path3075"
     d="M 85.521,84.261 V 43 C 85.521,19.426 66.443,0.317 42.91,0.317 H 1.72 C 0.936,0.317 0.3,0.954 0.3,1.74 V 43 c 0,23.574 19.078,42.684 42.611,42.684 h 41.19 c 0.784,0 1.42,-0.638 1.42,-1.423 z" /><g
     style="fill:#ffffff;fill-opacity:0.88235295"
     id="layer1"
     transform="matrix(0.10041643,0,0,0.10041643,6.3365471,14.343326)"><path
       id="path1910"
       style="fill:#ffffff;fill-opacity:0.88235295;fill-rule:evenodd"
       d="m 364.22276,43.006876 c -132.87966,0 -242.17862,108.667894 -242.17862,241.926604 0.005,134.15847 109.29532,242.82815 242.17862,242.82815 132.88335,0.004 242.17871,-108.66968 242.17871,-242.82815 0,-133.25507 -109.29536,-241.926604 -242.17871,-241.926604 z m 115.18177,357.417464 0,-284.44899 -286.43817,102.79063 0,70.41807 94.43854,-33.92561 0,213.09614 191.99963,-67.93024 z M 364.22276,1.4026157 c 156.48608,0 283.46461,127.3576243 283.46461,283.5308643 0.004,157.09141 -126.97853,284.43054 -283.46461,284.43054 -156.5486,0 -283.464541,-127.33913 -283.464541,-284.43054 0,-156.17324 126.915941,-283.5308643 283.464541,-283.5308643 l 0,0 z"
       inkscape:connector-curvature="0" /></g></svg>