<svg xmlns="http://www.w3.org/2000/svg" xmlns:xlink="http://www.w3.org/1999/xlink" version="1.1" id="Layer_1" x="0px" y="0px" width="100px" height="100px" viewBox="0 0 100 100" enable-background="new 0 0 100 100" xml:space="preserve">
<path d="M27.55,27.98c0.08-0.1,0.19-0.21,0.29-0.31l-2.689-2.7H25.14c-0.1,0.1-0.199,0.2-0.3,0.31  c-6.18,6.34-10.01,14.99-10.01,24.54c0,9.7,3.95,18.49,10.31,24.86l2.7-2.7c-5.68-5.68-9.189-13.52-9.189-22.16  C18.65,41.34,22.03,33.62,27.55,27.98z M74.86,24.97H74.85l-2.689,2.7c5.68,5.67,9.189,13.51,9.189,22.15  c0,8.64-3.51,16.48-9.189,22.16l2.7,2.7c6.359-6.37,10.31-15.16,10.31-24.86C85.17,40.12,81.22,31.34,74.86,24.97z"/>
<path d="M33.48,33.91c0.1-0.11,0.199-0.21,0.3-0.31l-1.971-1.97H31.8c-0.1,0.1-0.2,0.2-0.29,0.31c-4.49,4.63-7.26,10.93-7.26,17.88  c0,7.1,2.89,13.54,7.55,18.2l1.98-1.98c-4.16-4.15-6.73-9.89-6.73-16.22C27.05,43.65,29.5,38.04,33.48,33.91z M68.2,31.63h-0.01  L66.22,33.6c4.16,4.16,6.73,9.9,6.73,16.22c0,6.33-2.57,12.07-6.73,16.22l1.98,1.98c4.66-4.66,7.55-11.1,7.55-18.2  C75.75,42.72,72.86,36.29,68.2,31.63z"/>
<path d="M79.29,10.6v7.15c0,0-2.87,1.75-7.75,1.75c-2.12,0-4.605-0.443-6.056-0.753L64.75,22.18l-1.23,5.74l-0.63,2.92l-1.38,6.43  l-0.29,1.33l-0.18,0.82l-2.58,12.04l-0.08,0.39c-0.35,1.59-1.1,3.03-2.149,4.2c-1.711,1.94-4.211,3.15-6.98,3.15  c-2.4,0-4.58-0.9-6.24-2.39c-1.93-1.71-3.14-4.21-3.14-6.99c0-2.78,1.21-5.27,3.14-6.99c1.65-1.48,3.84-2.38,6.24-2.38  c2.05,0,3.96,0.67,5.5,1.79l1.5-6.25l0.44-1.83l1.399-5.81l0.66-2.73l1.32-5.48l0.89-3.73l1.4-5.81c0,0,0.05,0.01,0.14,0.03  l0.17,0.04c1.13,0.22,5.04,0.95,8.87,0.95C76.04,11.62,79.29,10.6,79.29,10.6z"/>
<path d="M63.97,40.08l-0.56,2.62c1.14,2.12,1.78,4.55,1.78,7.12c0,4.19-1.7,7.98-4.46,10.73v0.01l1.31,1.3c3.09-3.08,5-7.34,5-12.04  C67.04,46.2,65.91,42.84,63.97,40.08z M38.98,39.4c0.09-0.1,0.189-0.21,0.289-0.31l-1.31-1.31c-0.1,0.1-0.2,0.2-0.29,0.31  c-2.92,3.06-4.71,7.18-4.71,11.73c0,4.7,1.91,8.96,5,12.04l1.31-1.3v-0.01c-2.76-2.75-4.46-6.54-4.46-10.73  C34.81,45.8,36.4,42.12,38.98,39.4z"/>
</svg>