<svg xmlns="http://www.w3.org/2000/svg" xmlns:xlink="http://www.w3.org/1999/xlink" version="1.1" id="Capa_1" x="0px" y="0px" width="100px" height="100px" viewBox="0 0 100 100" enable-background="new 0 0 100 100" xml:space="preserve">
<g id="Capa_33" display="none">
</g>
<g id="Capa_20">
	<g>
		<g>
			<polygon points="52.234,27.935 50.652,28.447 50.339,29.838 49.136,30.877 52.613,31.262    "/>
			<polygon points="50.67,36.043 51.063,37.791 49.982,38.43 49.982,37.672 47.719,34.86 45.097,36.584 48.143,37.479 48.662,38.9      51.811,40.634 55.35,42.73 56.076,40.664 52.32,38.928    "/>
			<polygon points="53.809,37.785 56.957,39.332 57.461,38.623 54.527,35.777    "/>
			<path d="M33.954,11.534V75.84l32.093,12.627V24.159L33.954,11.534z M35.519,15.727l9.008,3.544l-2.76,3.472l-4.758-0.165     l-1.048,1.297l-0.442-0.295V15.727z M52.52,22.872l-2.091,0.886L49.57,21.71L52.52,22.872z M46.659,30.626l-1.438,0.4     l-1.265-1.119l0.5-1.162l0.199-1.528l0.888,0.047L46.659,30.626z M43.289,25.279l-1.903-0.977l1.524-0.426L43.289,25.279z      M58.326,66.741l2.094-4.308l-0.283,4.902L58.326,66.741z M35.676,50.65l-0.158,0.408v-0.625L35.676,50.65z M63.082,48.446     l-0.663,2.13l-3.81,1.352l2.382,1.733l-3.615,5.184l-0.188,4.71l-2.953,4.649l-3.143-0.324c0,0-2.092-7.772-1.997-8.078     c0.095-0.303-0.382-8.009-0.665-8.352c-0.287-0.341-5.618-3.005-5.618-3.005l-2.188-7.926l3.712-4.007l-1.047-3.146l1.808-1     l3.426-2.182l-0.666-2.085l3.711-2.642l3.236,2.184l9.678,1.293v20.478L63.082,48.446z"/>
		</g>
		<path d="M67.908,24.156v64.302L100,76.131V11.827L67.908,24.156z M88.079,33.48l1.544,3.721l-2.831,2.016l1.461-2.205    L88.079,33.48z M89.734,66.854l-2.569-1.177c0,0-5.142,2.201-5.235,2.58c-0.096,0.379,0.571-5.12,0.571-5.12l5.327-5.92    c0,0,3.714-1.654,3.809-2.029c0.096-0.379,2.666,5.469,2.666,5.469L89.734,66.854z M97.157,64.688l-2.095,3.992l-1.144-0.357    L97.157,64.688z M91.172,54.186l-2.75-0.795c0.26-0.203,2.922-1.637,2.922-1.637l2.488,0.691L91.172,54.186z M87.135,49.157    l-0.855,0.946l-1.289-4.851L87.135,49.157z M85.759,51.947l0.688,2.816l-1.805,0.077L85.759,51.947z M83.445,55.1l-1.461-0.572    l2.23-4.146l0.518,2.782L83.445,55.1z M84.902,56.798l-3.691,0.29l-3.005-2.341l-0.085-1.201l2.916,2.065L84.902,56.798z     M70.51,27.873l9.708-1.566c0,0,13.229-2.575,12.847-2.429c-0.248,0.095-2.903,3.335-2.903,3.335l0.192,2.743l-0.979-0.142    L87.55,28.39l-2.856,0.755l-0.666,2.421l2.854,1.525l-3.43,5.759l0.765,4.377l-2.858,4.629l-0.283,2.957l-1.428,2.26l-0.666-0.314    l-2.854-5.512l-2.95,4.096l-0.57,3.864l-2.666-5.356l-0.465,0.04V28.539L70.51,27.873z"/>
		<path d="M0,24.153v64.299l32.091-12.123V12.03L0,24.153z M28.917,21.359l-0.954,2.069l-1.617,0.611l-1.713-0.15l-4.377,4.275    l1.711,0.946l2.381-2.95l3.046-1.149l1.142,2.873l-3.807,4.398l-3.616,4.215l-2,3.262l-0.093,2.313l-3.237-0.486l-2.282,2.23    l0.76,2.789l2.094-1.819l2.569,3.818l2.76-2.525l5.901,1.531l2.942,1.764v6.833l-0.182,0.613c0,0-4.093,8.725-3.998,8.231    c0.096-0.491-1.426,3.616-1.426,3.616l0.951,3.285l-2.855-1.085L21.209,59.93l-3.139-4.621l0.665-5.724l-4.378-1.534l-3.141-0.297    l-3.046-5.91c0,0,0.952-5.374,1.236-5.597c0.286-0.22-0.189-4.029-0.189-4.029l-5.331,3.153L3.602,33.77    c0,0,6.185-6.893,6.09-6.515c-0.095,0.378,5.995-1.239,5.995-1.239l3.235-2.931l5.71-3.067l2.474-2.531l3.419-1.29v2.479    l-1.134-0.457l-2.666,2.259L28.917,21.359z M22.16,42.938l-1.428,1.678l-2.953-0.822L22.16,42.938z"/>
	</g>
</g>
</svg>