<svg xmlns="http://www.w3.org/2000/svg" xmlns:xlink="http://www.w3.org/1999/xlink" version="1.1" id="Layer_1" x="0px" y="0px" width="100px" height="100px" viewBox="0 0 100 100" enable-background="new 0 0 100 100" xml:space="preserve">
<path d="M48.994,8.126c-23.702,0-42.916,19.214-42.916,42.916c0,23.701,19.214,42.915,42.916,42.915  c23.701,0,42.916-19.214,42.916-42.915C91.91,27.34,72.695,8.126,48.994,8.126z M55.261,80.292c-0.033,0.194-0.176,0.351-0.366,0.4  c-1.589,0.418-4.01,0.916-6.516,0.916c-3.783,0-6.568-1.03-8.277-3.063c-1.849-2.198-2.409-5.482-1.665-9.762l3.405-19.033h-5.883  c-0.148,0-0.289-0.065-0.384-0.179c-0.095-0.114-0.134-0.264-0.108-0.409l1.44-8.01c0.043-0.238,0.25-0.412,0.492-0.412h16.65  c0.148,0,0.288,0.065,0.384,0.179c0.095,0.114,0.135,0.263,0.108,0.409L49.5,69.407c-0.238,1.392-0.133,2.333,0.322,2.873  c0.385,0.457,1.091,0.679,2.156,0.679c1.257,0,2.636-0.245,3.881-0.691c0.168-0.061,0.353-0.027,0.49,0.087  c0.136,0.114,0.201,0.292,0.172,0.467L55.261,80.292z M50.539,35.891c-3.998,0-7.25-3.252-7.25-7.25c0-3.997,3.252-7.249,7.25-7.249  c3.997,0,7.249,3.252,7.249,7.249C57.788,32.638,54.536,35.891,50.539,35.891z"/>
</svg>