<svg xmlns="http://www.w3.org/2000/svg" xmlns:xlink="http://www.w3.org/1999/xlink" xmlns:a="http://ns.adobe.com/AdobeSVGViewerExtensions/3.0/" version="1.1" x="0px" y="0px" width="100px" height="100px" viewBox="-16.605 -5.563 100 100" enable-background="new -16.605 -5.563 100 100" xml:space="preserve">
<defs>
</defs>
<path fill="#000000" d="M66.785,40.874c-0.885-1.804-1.516-2.393-2.283-4.12c-0.518-0.532-0.957-1.123-1.316-1.772  c-0.08-0.698,1.434-2.205,0.772-2.986c-2.409-2.85-0.112-5.699-3.884-7.819c-2.314-1.302,0.424-2.625,0.704-4.205  c0.333-1.883-0.042-3.69-0.636-5.495c-0.438-1.33-3.691-1.839-3.461-3.023c0.446-2.307-2.998-3.78-2.566-2.318  c-0.877-0.862-3.102-3.847-4.192-3.459c-0.426,0.15-4.251,0.548-2.989,1.846c-2.987-0.257,3.52-2.441,3.332-2.325  c-0.145-0.523-0.669-0.516-1.573,0.023c-1.337-0.786-2.154-0.36-2.453,1.278c-1.196,1.722-5.358,1.846-5.696,3.624  c0.209-0.258,0.438-0.525,0.648-0.757c-0.422,0.75-0.775,1.531-1.063,2.343c-0.461-0.115-4.592-1.103-4.666-1.236  c0.217,0.391,1.974-3.614,2.082-4.352c-1.119-0.185-6.039-0.113-6.192,0.543c0.479-2.337-1.16-0.744-2.318-1.486  c4.135-0.318-1.15-5.057-1.354-4.731C25.277,1.483,23.958,0.308,21.024,0c-0.599,1.664,1.504,2.748,2.208,3.92  c1.383,2.302-3.318,2.037-2.513,3.287c-0.214-0.332,4.378,3.389,1.356,3.131c0.392,0.872,0.94,1.629,1.37,2.233  c-1.471,0.268-2.24-1.453-3.238,0.024c-0.659,0.977-0.505,2.42-0.055,3.437c-3.131-1.21-0.84,0.013-2.079,1.131  c-0.741,0.38-1.19,0.073-1.347-0.918c1.666,0.1-0.373-2.359-1.046-2.362c-1.847-0.009-5.964,1.892-6.057,1.87  c-0.067,2.086-0.261,1.973,1.777,2.47c-1.897,0.652-0.729,8.494-3.07,7.72c-2.804-0.928-0.927,3.945,0.479,2.108  c1.933,1.827-1.052,3.643-2.171,4.895c2.679,1.127-2.704,1.636-2.311,2.354c-2.121-2.114-3.599,0.27-2.344,2.261  c0.882,1.4-0.321,5.306,0.323,5.101c-0.24,0.241-2.749,1.613-2.239,2.09c1.175,1.1,0.497,1.138,0.757,2.351  c0.074,0.343,1.365,1.722,1.054,1.847c0.575,0.741,0.767,2.429,1.73,3.814c-3.499-0.328-2.235,4.718-0.354,5.885  c0.274,1.14,0.849,0.562-0.107,2.256c-0.959,1.7,0.624,1.874,1.04,3.166c0.39,1.211,3.495,3.182,3.904,2.453  c1.084,1.094,2.345-0.67,2.876,0.391c0.744,1.487,4.261,1.806,5.685,2.082c-2.484,1.62-7.993,12.777-5.5,15.27  c1.305,1.305,2.107,1.116,4.384,0.796c0.675-0.095,3.37-0.043,3.364-0.108c1.305-1.487-0.72-0.095-0.965-0.819  c-0.874-2.586,3.262,0.025,3.513,0.113c3.454,1.198,1.011-1.507,1.197-1.789c1.31,0.452,3.968,3.357,5.303,3.009  c0.914-0.239,1.146,0.537,1.949,0.198c0.473,1.009,2.026,2.021,2.025,2.02c-0.131,0.396-0.263,0.794-0.394,1.19  c2.801-0.249,1.537-2.864,2.343-3.695c0.058,0.627,5.987,1.853,5.935,2.145c1.24-0.261,2.314-2.015,3.191-2.339  c2.402-0.888,3.265,0.335,4.855-1.876c-0.004,1.752,2.825,0.415,3.688,0.651c1.443,0.396,3.341,4.461,2.217-0.619  c-0.038-0.169-1.428-2.809-1.801-4.163c-0.233-0.846,4.951-4.294,5.275-6.1c2.536,2.157,2.422-1.045,1.734-2.745  c-0.889-2.202-3.047-1.771-4.656-3.891c-2.198-1.841-3.611-2.945-5.186-5.158c-0.759-1.066-0.419-1.708-0.373-2.986  c0.063-1.733-2.689-2.629-2.967-4.857c1.252-0.223,0.996,1.245,1.805,1.643c-0.618-2.531,15.43-8.127,14.929-9.392  c-0.161-0.406-1.739-0.521-0.766-1.495c1.19-1.19,2.607,2.39,3.071,2.3C66.642,45.942,66.828,42.168,66.785,40.874  C66.511,40.315,66.83,42.223,66.785,40.874z"/>
</svg>