<svg xmlns="http://www.w3.org/2000/svg" xmlns:xlink="http://www.w3.org/1999/xlink" version="1.1" id="Layer_1" x="0px" y="0px" width="100px" height="100px" viewBox="0 0 100 100" enable-background="new 0 0 100 100" xml:space="preserve">
<path fill="#000000" d="M86.497,1.667H14.499c-4.951,0-9,4.05-9,9V67.5c0,4.951,4.049,9,9,9h18.02l-0.02,18l17.999-18h36  c4.951,0,9-4.049,9-9V10.667C95.497,5.717,91.448,1.667,86.497,1.667z M77.497,58.5H23.499v-2.982h53.999V58.5z M77.497,46.5H23.499  v-2.982h53.999V46.5z M77.497,31.518v2.965V34.5H23.499v-0.018v-2.965V31.5h53.999V31.518z M77.497,22.482H23.499V19.5h53.999  V22.482z"/>
</svg>