<svg xmlns="http://www.w3.org/2000/svg" xmlns:xlink="http://www.w3.org/1999/xlink" version="1.1" x="0px" y="0px" width="100px" height="100px" viewBox="0 0 100 100" enable-background="new 0 0 100 100" xml:space="preserve">
<g id="Captions">
</g>
<g id="Your_Icon">
	<g>
		<path d="M39,67.964c-0.486,0-0.974-0.118-1.418-0.356C36.608,67.085,36,66.069,36,64.964V35.036c0-1.105,0.608-2.121,1.582-2.644    c0.975-0.522,2.157-0.468,3.078,0.145l22.527,14.965c0.837,0.557,1.34,1.494,1.34,2.499s-0.503,1.943-1.34,2.499L40.66,67.463    C40.159,67.796,39.58,67.964,39,67.964z M42,40.631V59.37l14.105-9.369L42,40.631z"/>
	</g>
	<g>
		<path d="M81.83,80H18.169c-7.85,0-11.425-16.058-11.425-30.977C6.744,21.399,16.261,20,18.169,20H81.83    c1.908,0,11.426,1.399,11.426,29.023C93.256,63.942,89.681,80,81.83,80z M18.428,74h63.145c1.36-0.807,5.684-6.811,5.684-24.977    c0-17.831-4.286-22.657-5.503-23.023H18.247c-1.218,0.367-5.503,5.194-5.503,23.023C12.744,67.188,17.066,73.192,18.428,74z"/>
	</g>
</g>
</svg>