<svg xmlns="http://www.w3.org/2000/svg" xmlns:xlink="http://www.w3.org/1999/xlink" version="1.1" x="0px" y="0px" width="100px" height="100px" viewBox="0 0 100 100" enable-background="new 0 0 100 100" xml:space="preserve">
<g id="Captions">
</g>
<g id="Your_Icon">
	<path d="M35.871,23.762v-6.745c0-1.882-1.525-3.408-3.408-3.408c-1.881,0-3.408,1.526-3.408,3.408v6.745   c1.111-0.177,2.25-0.272,3.408-0.272C33.623,23.49,34.762,23.584,35.871,23.762z"/>
	<path d="M49.906,32.412l4.779-4.779c1.33-1.331,1.33-3.489,0-4.82s-3.488-1.331-4.82,0l-4.777,4.778   C46.938,28.933,48.564,30.562,49.906,32.412z"/>
	<path d="M15.02,32.412c1.344-1.85,2.971-3.478,4.82-4.82l-4.777-4.778c-1.332-1.331-3.49-1.331-4.82,0   c-1.332,1.331-1.332,3.489,0,4.82L15.02,32.412z"/>
	<path d="M4.445,48.443h6.746c-0.178-1.111-0.271-2.248-0.271-3.408s0.094-2.297,0.271-3.408H4.445   c-1.883,0-3.408,1.526-3.408,3.408S2.562,48.443,4.445,48.443z"/>
	<path d="M15.02,57.657l-4.777,4.78c-1.332,1.33-1.332,3.489,0,4.819c0.664,0.666,1.537,0.999,2.41,0.999   c0.871,0,1.744-0.333,2.41-0.999l4.777-4.778C17.99,61.136,16.363,59.507,15.02,57.657z"/>
	<path d="M17.736,45.035c0,1.175,0.15,2.312,0.412,3.408c0.367,1.543,0.975,2.99,1.785,4.302c1.209,1.961,2.859,3.611,4.818,4.82   c0.268,0.164,0.531,0.328,0.809,0.477c2.531-3.09,5.906-5.473,9.818-6.77c2.123-5.323,5.664-9.817,10.102-13.123   c-0.152-0.283-0.318-0.554-0.486-0.826c-1.207-1.96-2.859-3.611-4.818-4.82c-1.314-0.81-2.76-1.419-4.305-1.785   c-1.096-0.261-2.232-0.413-3.408-0.413s-2.312,0.152-3.408,0.413c-1.543,0.366-2.988,0.975-4.303,1.785   c-1.959,1.209-3.611,2.86-4.818,4.82c-0.811,1.312-1.418,2.759-1.785,4.302C17.887,42.722,17.736,43.86,17.736,45.035z"/>
	<path d="M83.811,49.99c-4.336-6.848-11.969-11.077-20.068-11.077c-3.58,0-7.002,0.819-10.084,2.274   c-1.107,0.522-2.172,1.122-3.182,1.803c-1.188,0.803-2.293,1.717-3.318,2.719c-3.111,3.041-5.418,6.93-6.488,11.359   c-2.596,0.271-4.971,1.212-6.975,2.632c-1.301,0.922-2.443,2.045-3.381,3.332c-0.711,0.978-1.307,2.045-1.762,3.186   c-0.672,1.688-1.043,3.53-1.043,5.464c0,8.111,6.6,14.71,14.711,14.71h38.4c0.484,0,0.963-0.025,1.438-0.062   c9.479-0.74,16.904-8.77,16.904-18.28C98.963,59.175,92.492,51.521,83.811,49.99z M80.621,78.65h-38.4   c-3.844,0-6.969-3.126-6.969-6.969c0-2.574,1.395-4.835,3.502-6.041c0.668-0.382,1.402-0.658,2.191-0.804   c0.174-0.032,0.346-0.062,0.523-0.081c0.248-0.027,0.498-0.043,0.752-0.043c1.281,0,2.543,0.361,3.646,1.045   c0.213,0.131,0.451,0.195,0.688,0.195c0.004,0,0.008,0,0.012,0c0.002,0,0.004,0,0.008,0c0.721,0,1.307-0.585,1.307-1.307   c0-0.122-0.018-0.241-0.049-0.354c-0.059-0.56-0.088-1.111-0.088-1.64c0-0.907,0.096-1.813,0.25-2.708   c0.033-0.19,0.051-0.384,0.09-0.572c0.732-3.508,2.617-6.547,5.193-8.779c2.84-2.46,6.518-3.939,10.465-3.939   c4.676,0,9.109,2.05,12.164,5.625c1.125,1.316,2.023,2.796,2.672,4.395c0.197,0.493,0.672,0.818,1.199,0.818   c0.033,0,0.066-0.002,0.1-0.004l0.133-0.008c0.229-0.017,0.457-0.025,0.686-0.025c1.453,0,2.908,0.322,4.27,0.938   c3.801,1.717,6.256,5.508,6.256,9.658C91.221,73.895,86.465,78.65,80.621,78.65z"/>
</g>
</svg>