<svg xmlns="http://www.w3.org/2000/svg" xmlns:xlink="http://www.w3.org/1999/xlink" version="1.1" id="Layer_1" x="0px" y="0px" viewBox="0 0 90 90" enable-background="new 0 0 90 90" xml:space="preserve" height="100px" width="100px">
<path fill="#000000" d="M12.6,77.9l17.7-29.1c0.6,0.2,1.3,0.4,2.1,0.4c1.7,0,3.2-0.7,4.3-1.8l11.2,7.6c-0.5,1-0.6,2.2-0.4,3.3  c0.4,2.5,2.4,4.5,4.9,4.9c0.3,0,0.6,0.1,0.9,0.1c1.7,0,3.4-0.8,4.5-2.1c1.1-1.3,1.6-3.1,1.4-4.8c-0.1-0.9-0.5-1.8-1.1-2.6l14.3-22.6  c0.3,0.1,0.6,0.2,0.9,0.2c0.3,0,0.6,0.1,0.9,0.1c1.7,0,3.4-0.8,4.5-2.1c1.1-1.3,1.6-3.1,1.4-4.8c-0.4-2.5-2.4-4.5-4.9-4.9  c-2-0.3-4.1,0.4-5.4,2c-1.1,1.3-1.6,3.1-1.4,4.8c0.2,1.2,0.7,2.3,1.5,3.1L55.7,51.9c-0.5-0.2-1-0.4-1.5-0.5  c-1.6-0.2-3.2,0.2-4.5,1.1l-11.6-7.9c0.1-0.5,0.2-0.9,0.2-1.4c0-3.3-2.7-5.9-5.9-5.9s-5.9,2.7-5.9,5.9c0,1.5,0.5,2.8,1.4,3.8  L12,73.2V7.5H6v76.4h76.5v-6H12.6z M76.3,27.5c-0.7,0.8-1.7,1.1-2.7,1c-1.2-0.2-2.2-1.2-2.4-2.4c-0.1-0.4,0-0.8,0-1.1  c0.1-0.5,0.3-0.9,0.6-1.2c0.4-0.5,0.9-0.8,1.5-0.9c0.2-0.1,0.5-0.1,0.7-0.1c0.2,0,0.3,0,0.5,0c0.1,0,0.2,0,0.3,0.1  c1.1,0.3,1.9,1.2,2.1,2.3c0,0,0,0,0,0C77.1,26,76.9,26.9,76.3,27.5z M53.7,54.4c0.1,0,0.2,0,0.3,0.1c1.1,0.3,1.9,1.2,2.1,2.3  c0,0,0,0,0,0c0.1,0.9-0.1,1.7-0.7,2.4c-0.7,0.8-1.7,1.1-2.7,1c-1.2-0.2-2.2-1.2-2.4-2.4c-0.1-0.4,0-0.8,0-1.1  c0.1-0.5,0.3-0.9,0.6-1.2c0.4-0.5,0.9-0.8,1.5-0.9c0.2-0.1,0.5-0.1,0.7-0.1C53.4,54.4,53.5,54.4,53.7,54.4z M29.4,43.2  c0-1.6,1.3-2.9,2.9-2.9c1.4,0,2.6,1,2.9,2.4c0,0.2,0.1,0.3,0.1,0.5c0,1-0.5,1.8-1.2,2.3c-0.5,0.4-1.1,0.6-1.7,0.6  c-0.1,0-0.3,0-0.4,0c-1.1-0.2-2-0.9-2.3-1.9C29.5,43.9,29.4,43.6,29.4,43.2z"/>
</svg>